<svg width="44" height="43" viewBox="0 0 44 43" fill="none" xmlns="http://www.w3.org/2000/svg">
<path d="M7.76921 6.66541C7.52493 6.66541 7.3269 6.86343 7.3269 7.10771V10.6462C7.3269 10.8905 7.52493 11.0885 7.76921 11.0885C8.01349 11.0885 8.21152 10.8905 8.21152 10.6462V7.55002H11.3077C11.552 7.55002 11.75 7.35199 11.75 7.10771C11.75 6.86343 11.552 6.66541 11.3077 6.66541H7.76921Z" fill="white"/>
<path d="M36.5192 7.10771C36.5192 6.86343 36.3212 6.66541 36.0769 6.66541H32.5384C32.2942 6.66541 32.0961 6.86343 32.0961 7.10771C32.0961 7.35199 32.2942 7.55002 32.5384 7.55002H35.6346V10.6462C35.6346 10.8905 35.8326 11.0885 36.0769 11.0885C36.3212 11.0885 36.5192 10.8905 36.5192 10.6462V7.10771Z" fill="white"/>
<path d="M36.5192 35.4154C36.5192 35.6597 36.3212 35.8577 36.0769 35.8577H32.5384C32.2942 35.8577 32.0961 35.6597 32.0961 35.4154C32.0961 35.1711 32.2942 34.9731 32.5384 34.9731H35.6346V31.8769C35.6346 31.6327 35.8326 31.4346 36.0769 31.4346C36.3212 31.4346 36.5192 31.6327 36.5192 31.8769V35.4154Z" fill="white"/>
<path d="M7.3269 35.4154C7.3269 35.6597 7.52493 35.8577 7.76921 35.8577H11.3077C11.552 35.8577 11.75 35.6597 11.75 35.4154C11.75 35.1711 11.552 34.9731 11.3077 34.9731H8.21152V31.8769C8.21152 31.6327 8.01349 31.4346 7.76921 31.4346C7.52493 31.4346 7.3269 31.6327 7.3269 31.8769V35.4154Z" fill="white"/>
<path fill-rule="evenodd" clip-rule="evenodd" d="M10.8654 10.6462C10.8654 10.4019 11.0634 10.2039 11.3077 10.2039H18.3846C18.6289 10.2039 18.8269 10.4019 18.8269 10.6462V11.5308H25.0192V10.6462C25.0192 10.4019 25.2172 10.2039 25.4615 10.2039H32.5384C32.7827 10.2039 32.9808 10.4019 32.9808 10.6462V17.7231C32.9808 17.9674 32.7827 18.1654 32.5384 18.1654H31.6538V24.3577H32.5384C32.7827 24.3577 32.9808 24.5557 32.9808 24.8V31.8769C32.9808 32.1212 32.7827 32.3193 32.5384 32.3193H25.4615C25.2172 32.3193 25.0192 32.1212 25.0192 31.8769V30.9923H18.8269V31.8769C18.8269 32.1212 18.6289 32.3193 18.3846 32.3193H11.3077C11.0634 32.3193 10.8654 32.1212 10.8654 31.8769V24.8C10.8654 24.5557 11.0634 24.3577 11.3077 24.3577H12.1923V18.1654H11.3077C11.0634 18.1654 10.8654 17.9674 10.8654 17.7231V10.6462ZM25.0192 13.3H18.8269V14.1846C18.8269 14.4289 18.6289 14.6269 18.3846 14.6269H15.2884V17.7231C15.2884 17.9674 15.0904 18.1654 14.8461 18.1654H13.9615V24.3577H14.8461C15.0904 24.3577 15.2884 24.5557 15.2884 24.8V27.8962H18.3846C18.6289 27.8962 18.8269 28.0942 18.8269 28.3385V29.2231H25.0192V28.3385C25.0192 28.0942 25.2172 27.8962 25.4615 27.8962H28.5577V24.8C28.5577 24.5557 28.7557 24.3577 29 24.3577H29.8846V18.1654H29C28.7557 18.1654 28.5577 17.9674 28.5577 17.7231V14.6269H25.4615C25.2172 14.6269 25.0192 14.4289 25.0192 14.1846V13.3ZM11.75 11.0885V17.2808H14.4038V14.1846C14.4038 13.9404 14.6019 13.7423 14.8461 13.7423H17.9423V11.0885H11.75ZM25.9038 11.0885H32.0961V17.2808H29.4423V14.1846C29.4423 13.9404 29.2443 13.7423 29 13.7423H25.9038V11.0885ZM32.0961 25.2423H29.4423V28.3385C29.4423 28.5828 29.2443 28.7808 29 28.7808H25.9038V31.4346H32.0961V25.2423ZM17.9423 28.7808V31.4346H11.75V25.2423H14.4038V28.3385C14.4038 28.5828 14.6019 28.7808 14.8461 28.7808H17.9423Z" fill="white"/>
</svg>
