<svg width="44" height="43" viewBox="0 0 44 43" fill="none" xmlns="http://www.w3.org/2000/svg">
<path d="M21.8524 37.4155H12.6347C11.6576 37.4155 10.8655 36.6234 10.8655 35.6463V11.7616C10.8655 10.7845 11.6576 9.99241 12.6347 9.99241H17.9424C17.9424 7.55087 19.9239 5.56934 22.3655 5.56934C24.807 5.56934 26.7886 7.55087 26.7886 9.99241H32.0962C33.0734 9.99241 33.8655 10.7845 33.8655 11.7616V13.9732" stroke="white" stroke-width="1.76923" stroke-miterlimit="10" stroke-linecap="round"/>
<path d="M22.3654 11.7616C23.3425 11.7616 24.1347 10.9695 24.1347 9.99238C24.1347 9.01526 23.3425 8.22314 22.3654 8.22314C21.3883 8.22314 20.5962 9.01526 20.5962 9.99238C20.5962 10.9695 21.3883 11.7616 22.3654 11.7616Z" stroke="white" stroke-width="0.884615"/>
<path d="M34.7501 17.954H28.5577L25.0193 28.5694H29.4424L26.7885 37.4155L40.0577 24.1463H32.9808L34.7501 17.954Z" stroke="white" stroke-width="1.76923" stroke-linejoin="round"/>
</svg>
