<svg width="44" height="43" viewBox="0 0 44 43" fill="none" xmlns="http://www.w3.org/2000/svg">
<path d="M26.4341 6.68958C26.6363 6.70978 26.8271 6.79852 26.9722 6.94348L34.0493 14.0206C34.215 14.1865 34.3081 14.4121 34.3081 14.6466V16.4152C34.308 16.9036 33.9117 17.2998 33.4233 17.2999C32.9348 17.2999 32.5387 16.9036 32.5386 16.4152V15.5314H26.3462C26.1118 15.5313 25.887 15.4373 25.7212 15.2716C25.5554 15.1058 25.4615 14.8811 25.4614 14.6466V8.45422H12.1929C11.7043 8.45422 11.3081 8.85043 11.3081 9.33899V35.8771L11.313 35.9679C11.3585 36.4137 11.735 36.7618 12.1929 36.7618H24.5776L24.6675 36.7667C25.1135 36.8121 25.4614 37.1886 25.4614 37.6466C25.4612 38.1044 25.1134 38.4812 24.6675 38.5265L24.5776 38.5314H12.1929C10.8189 38.5314 9.68826 37.4867 9.55225 36.1486L9.53857 35.8771V9.33899C9.53857 7.87331 10.7272 6.68469 12.1929 6.68469H26.3462L26.4341 6.68958ZM35.5591 17.507C36.6581 16.4554 38.2066 16.7601 39.2036 17.3712C40.2096 17.9882 41.1691 19.2177 40.8726 20.6691C40.7948 21.0492 40.5897 21.4711 40.3667 21.8634C40.1318 22.2765 39.8274 22.7407 39.4858 23.2257C38.8015 24.1973 37.9331 25.3015 37.0874 26.3341C36.2399 27.3688 35.4054 28.3431 34.7837 29.0577C34.532 29.3471 34.3145 29.5942 34.145 29.7863L35.9126 30.8673C37.0586 31.5684 37.4192 33.066 36.7183 34.212L36.0854 35.2472C35.8943 35.5592 35.4857 35.6585 35.1733 35.4679L34.5415 35.0812L33.3589 37.0148C33.2313 37.2227 32.9587 37.2885 32.7505 37.1613L24.6802 32.2238C24.4722 32.0963 24.4067 31.8236 24.5337 31.6154L25.7163 29.6818L25.0845 29.296C24.7724 29.1048 24.6749 28.6953 24.8657 28.3829L25.4985 27.3488C26.1996 26.2028 27.6972 25.8422 28.8433 26.5431L30.5718 27.6007C30.6695 27.3634 30.7968 27.0559 30.9468 26.6974C31.3109 25.8272 31.8115 24.6519 32.355 23.4347C32.8976 22.2193 33.4883 20.9511 34.0317 19.9005C34.3032 19.3759 34.5672 18.8937 34.813 18.4962C35.0479 18.1164 35.3032 17.7519 35.5591 17.507ZM25.519 31.7003L32.8345 36.1759L33.7866 34.6193L26.4712 30.1437L25.519 31.7003ZM28.1509 27.674C27.63 27.3558 26.9489 27.5204 26.6304 28.0411L26.3433 28.5099L35.2993 33.9884L35.5864 33.5197C35.9049 32.9987 35.7411 32.3178 35.2202 31.9991L28.1509 27.674ZM19.3599 27.92C19.8058 27.9654 20.1537 28.3421 20.1538 28.7999C20.1537 29.2578 19.8058 29.6344 19.3599 29.6798L19.269 29.6847H15.731C15.2425 29.6847 14.8463 29.2884 14.8462 28.7999C14.8464 28.3115 15.2425 27.9152 15.731 27.9152H19.269L19.3599 27.92ZM38.2788 18.88C37.6014 18.4647 37.0396 18.5386 36.7817 18.7853C36.6983 18.8653 36.5413 19.0666 36.3179 19.4279C36.1049 19.7723 35.8626 20.2104 35.6021 20.714C35.0815 21.7204 34.5071 22.952 33.9702 24.1544C33.4341 25.3551 32.9394 26.5177 32.5786 27.38C32.4631 27.6561 32.3617 27.9019 32.2769 28.1075L32.9194 28.5011C33.0687 28.3317 33.2486 28.1277 33.4497 27.8966C34.0643 27.1902 34.8864 26.2298 35.7192 25.213C36.554 24.1938 37.3913 23.1276 38.0396 22.2072C38.364 21.7465 38.6328 21.3329 38.8286 20.9884C39.0362 20.6232 39.1206 20.4053 39.1392 20.3146C39.2272 19.8826 38.9469 19.2898 38.2788 18.88ZM26.437 22.6124C26.8828 22.6579 27.2308 23.0345 27.231 23.4923C27.2309 23.9501 26.8828 24.3267 26.437 24.3722L26.3462 24.3771H15.731C15.2425 24.377 14.8463 23.9808 14.8462 23.4923C14.8463 23.0039 15.2425 22.6076 15.731 22.6075H26.3462L26.437 22.6124ZM28.2065 17.3048C28.6522 17.3504 29.0004 17.727 29.0005 18.1847C29.0004 18.6424 28.6522 19.019 28.2065 19.0646L28.1157 19.0695H15.731C15.2425 19.0694 14.8463 18.6731 14.8462 18.1847C14.8463 17.6962 15.2425 17.3 15.731 17.2999H28.1157L28.2065 17.3048ZM27.231 13.7618H31.2876L27.231 9.7052V13.7618Z" fill="white"/>
</svg>
