<svg width="44" height="44" viewBox="0 0 44 44" fill="none" xmlns="http://www.w3.org/2000/svg">
<path d="M7.3269 7.8001C7.3269 7.55582 7.52493 7.35779 7.76921 7.35779H11.3077C11.552 7.35779 11.75 7.55582 11.75 7.8001C11.75 8.04438 11.552 8.2424 11.3077 8.2424H8.21152V11.3386C8.21152 11.5828 8.01349 11.7809 7.76921 11.7809C7.52493 11.7809 7.3269 11.5828 7.3269 11.3386V7.8001Z" fill="white"/>
<path fill-rule="evenodd" clip-rule="evenodd" d="M10.8654 11.3386C10.8654 11.0943 11.0634 10.8962 11.3077 10.8962H18.3846C18.6289 10.8962 18.8269 11.0943 18.8269 11.3386V12.2232H25.0192V11.3386C25.0192 11.0943 25.2172 10.8962 25.4615 10.8962H32.5384C32.7827 10.8962 32.9808 11.0943 32.9808 11.3386V18.4155C32.9808 18.6598 32.7827 18.8578 32.5384 18.8578H31.6538V20.1847C31.6538 20.6733 31.2578 21.0693 30.7692 21.0693C30.2807 21.0693 29.8846 20.6733 29.8846 20.1847V18.8578H29C28.7557 18.8578 28.5577 18.6598 28.5577 18.4155V15.3193H25.4615C25.2172 15.3193 25.0192 15.1213 25.0192 14.877V13.9924H18.8269V14.877C18.8269 15.1213 18.6289 15.3193 18.3846 15.3193H15.2884V18.4155C15.2884 18.6598 15.0904 18.8578 14.8461 18.8578H13.9615V25.0501H14.8461C15.0904 25.0501 15.2884 25.2481 15.2884 25.4924V28.5886H18.3846C18.6289 28.5886 18.8269 28.7866 18.8269 29.0309V29.9155H20.1538C20.6424 29.9155 21.0384 30.3115 21.0384 30.8001C21.0384 31.2887 20.6424 31.6847 20.1538 31.6847H18.8269V32.5693C18.8269 32.8136 18.6289 33.0116 18.3846 33.0116H11.3077C11.0634 33.0116 10.8654 32.8136 10.8654 32.5693V25.4924C10.8654 25.2481 11.0634 25.0501 11.3077 25.0501H12.1923V18.8578H11.3077C11.0634 18.8578 10.8654 18.6598 10.8654 18.4155V11.3386ZM11.75 11.7809V17.9732H14.4038V14.877C14.4038 14.6327 14.6019 14.4347 14.8461 14.4347H17.9423V11.7809H11.75ZM32.0961 11.7809H25.9038V14.4347H29C29.2443 14.4347 29.4423 14.6327 29.4423 14.877V17.9732H32.0961V11.7809ZM17.9423 32.127H11.75V25.9347H14.4038V29.0309C14.4038 29.2751 14.6019 29.4732 14.8461 29.4732H17.9423V32.127Z" fill="white"/>
<path d="M36.5192 7.8001C36.5192 7.55582 36.3212 7.35779 36.0769 7.35779H32.5384C32.2942 7.35779 32.0961 7.55582 32.0961 7.8001C32.0961 8.04438 32.2942 8.2424 32.5384 8.2424H35.6346V11.3386C35.6346 11.5828 35.8326 11.7809 36.0769 11.7809C36.3212 11.7809 36.5192 11.5828 36.5192 11.3386V7.8001Z" fill="white"/>
<path d="M7.76921 36.5501C7.52493 36.5501 7.3269 36.3521 7.3269 36.1078V32.5693C7.3269 32.325 7.52493 32.127 7.76921 32.127C8.01349 32.127 8.21152 32.325 8.21152 32.5693V35.6655H11.3077C11.552 35.6655 11.75 35.8635 11.75 36.1078C11.75 36.3521 11.552 36.5501 11.3077 36.5501H7.76921Z" fill="white"/>
<path d="M33.0911 29.0773C33.4726 29.3825 33.5344 29.9392 33.2292 30.3207L30.8702 33.2694C30.7131 33.4659 30.4796 33.5861 30.2284 33.6001C29.9772 33.614 29.7319 33.5202 29.554 33.3423L28.3745 32.1628C28.029 31.8174 28.029 31.2573 28.3745 30.9118C28.7199 30.5663 29.28 30.5663 29.6255 30.9118L30.1061 31.3924L31.8477 29.2155C32.1529 28.834 32.7096 28.7721 33.0911 29.0773Z" fill="white"/>
<path fill-rule="evenodd" clip-rule="evenodd" d="M30.1815 23.062C30.5167 22.7641 31.0218 22.7641 31.3569 23.062L33.8174 25.2491C33.8417 24.7823 34.228 24.4112 34.7008 24.4112C35.1894 24.4112 35.5855 24.8073 35.5855 25.2958V26.8207L38.4339 29.3526C38.799 29.6772 38.8319 30.2363 38.5073 30.6015C38.1827 30.9666 37.6236 30.9995 37.2584 30.6749L37.1581 30.5858V36.3044C37.1581 36.7929 36.7621 37.189 36.2735 37.189H25.2649C24.7764 37.189 24.3803 36.7929 24.3803 36.3044V30.5858L24.28 30.6749C23.9149 30.9995 23.3557 30.9666 23.0311 30.6015C22.7065 30.2363 22.7394 29.6772 23.1046 29.3526L30.1815 23.062ZM26.1496 29.0131V35.4198H35.3889V29.0131L30.7692 24.9067L26.1496 29.0131Z" fill="white"/>
</svg>
