<svg width="44" height="44" viewBox="0 0 44 44" fill="none" xmlns="http://www.w3.org/2000/svg">
<path d="M36.5271 6.2616C37.2599 6.26164 37.8542 6.85594 37.8542 7.58875V35.952C37.8542 36.6848 37.2599 37.2791 36.5271 37.2792H8.21167C7.52469 37.2792 6.95939 36.7568 6.89136 36.0878L6.88452 35.952V30.5887C6.88452 29.8559 7.47883 29.2616 8.21167 29.2616H29.8845V7.58875C29.8845 6.85591 30.4788 6.2616 31.2117 6.2616H36.5271ZM31.6541 31.0311H8.65405V35.5096H10.865V34.5692C10.8651 34.3251 11.0633 34.127 11.3074 34.1268C11.5516 34.1268 11.7497 34.325 11.7498 34.5692V35.5096H14.4041V32.7997C14.4043 32.5556 14.6023 32.3573 14.8464 32.3573C15.0904 32.3574 15.2886 32.5557 15.2888 32.7997V35.5096H17.9421V34.5692C17.9422 34.325 18.1403 34.1269 18.3845 34.1268C18.6287 34.1268 18.8268 34.325 18.8269 34.5692V35.5096H21.4802V32.7997C21.4805 32.5558 21.6787 32.3576 21.9226 32.3573C22.1667 32.3573 22.3647 32.5556 22.365 32.7997V35.5096H25.0193V34.5692C25.0194 34.325 25.2174 34.1268 25.4617 34.1268C25.7058 34.1269 25.904 34.3251 25.9041 34.5692V35.5096H28.5574V32.7997C28.5576 32.5557 28.7557 32.3574 28.9998 32.3573C29.2439 32.3573 29.4419 32.5556 29.4421 32.7997V35.5096H32.0964V34.5692C32.0965 34.325 32.2946 34.1268 32.5388 34.1268C32.7829 34.127 32.9811 34.3251 32.9812 34.5692V35.5096H36.0847V32.3583H35.1921C34.9481 32.3582 34.75 32.1599 34.7498 31.9159C34.7498 31.6717 34.9479 31.4736 35.1921 31.4735H36.0847V28.8192H33.4226C33.1785 28.819 32.9802 28.621 32.9802 28.3768C32.9803 28.1328 33.1786 27.9347 33.4226 27.9344H36.0847V25.2811H35.1921C34.948 25.281 34.7499 25.0829 34.7498 24.8387C34.7498 24.5945 34.9479 24.3965 35.1921 24.3964H36.0847V21.7421H33.4226C33.1785 21.7418 32.9802 21.5438 32.9802 21.2997C32.9804 21.0557 33.1787 20.8576 33.4226 20.8573H36.0847V18.204H35.1921C34.9479 18.2039 34.7498 18.0058 34.7498 17.7616C34.7498 17.5174 34.9479 17.3193 35.1921 17.3192H36.0847V14.6659H33.4226C33.1787 14.6656 32.9804 14.4675 32.9802 14.2235C32.9802 13.9794 33.1785 13.7814 33.4226 13.7811H36.0847V11.1268H35.1921C34.9479 11.1267 34.7498 10.9287 34.7498 10.6844C34.7499 10.4403 34.948 10.2422 35.1921 10.2421H36.0847V8.03113H31.6541V31.0311ZM19.114 10.4247C19.3672 10.4564 19.5964 10.5971 19.74 10.8124L21.0828 12.8251H23.8191C25.1903 12.8251 26.3083 13.9441 26.3083 15.3153V23.162C26.3081 24.5331 25.1902 25.6512 23.8191 25.6512H9.37476C8.00366 25.6512 6.88478 24.533 6.88452 23.162V15.3153C6.88456 13.9441 8.00352 12.8251 9.37476 12.8251H12.1111L13.4529 10.8124L13.5203 10.7245C13.6871 10.5314 13.9305 10.4179 14.1892 10.4178H19.0046L19.114 10.4247ZM13.3201 14.201C13.1561 14.4468 12.8801 14.5944 12.5847 14.5946H9.37476C8.98064 14.5947 8.65409 14.9212 8.65405 15.3153V23.162C8.65432 23.5559 8.98078 23.8817 9.37476 23.8817H23.8191C24.2131 23.8817 24.5395 23.5559 24.5398 23.162V15.3153C24.5398 14.9212 24.2132 14.5946 23.8191 14.5946H20.6091C20.3135 14.5946 20.0369 14.447 19.8728 14.201L18.531 12.1874H14.6628L13.3201 14.201ZM16.5964 14.5624C18.7355 14.5624 20.4692 16.2964 20.4695 18.4354C20.4695 20.5747 18.7357 22.3085 16.5964 22.3085C14.4574 22.3082 12.7234 20.5745 12.7234 18.4354C12.7237 16.2966 14.4576 14.5627 16.5964 14.5624ZM16.5964 15.8885C15.1904 15.8888 14.0498 17.0294 14.0496 18.4354C14.0496 19.8416 15.1903 20.982 16.5964 20.9823C18.0028 20.9823 19.1433 19.8418 19.1433 18.4354C19.143 17.0293 18.0027 15.8885 16.5964 15.8885Z" fill="white"/>
</svg>
