<svg width="151" height="30" viewBox="0 0 151 30" fill="none" xmlns="http://www.w3.org/2000/svg">
<g clip-path="url(#clip0_22_3618)">
<path d="M23.7599 19.1014L28.7967 16.1873C28.8604 15.613 28.903 15.0387 28.903 14.4644C28.903 10.0187 26.9053 6.06232 23.7599 3.40344V19.1014Z" fill="#4E525F"/>
<path d="M13.8139 4.06269L8.77711 1.16983C4.35667 3.04168 1.08384 7.0619 0.233749 11.9117L13.8139 4.06269Z" fill="#4E525F"/>
<path d="M15.0891 24.8659L20.1258 27.78C24.525 25.8869 27.8191 21.8667 28.6692 17.0169L15.0891 24.8659Z" fill="#4E525F"/>
<path d="M23.1223 8.72111V2.89286C20.6996 1.08482 17.703 0 14.4515 0C12.73 0 11.0724 0.297794 9.54222 0.85084L23.1223 8.72111Z" fill="#4E525F"/>
<path d="M5.7806 20.2075V26.0357C8.20335 27.8437 11.1999 28.9286 14.4515 28.9286C16.1729 28.9286 17.8306 28.6308 19.3607 28.0777L5.7806 20.2075Z" fill="#4E525F"/>
<path d="M5.14302 9.82726L0.106261 12.7414C0.0425043 13.2944 0 13.8687 0 14.4643C0 18.91 1.9977 22.8664 5.14302 25.5253V9.82726Z" fill="#4E525F"/>
<path d="M22.8988 9.57254V19.3333L14.4515 24.2239L6.00423 19.3333V9.57254L14.4515 4.70242L22.8988 9.57254Z" stroke="#5C5CE8" stroke-width="0.446438"/>
<path d="M11.3233 9.26872C11.4757 9.30008 11.5899 9.43517 11.5899 9.59685C11.5898 9.75841 11.4756 9.89363 11.3233 9.92497L11.255 9.93181H10.545L11.8507 11.2384H17.1397V10.049C17.1396 9.98766 17.0897 9.93805 17.0284 9.93767H12.7843C12.5995 9.93765 12.4495 9.78748 12.4493 9.60271C12.4493 9.4178 12.5993 9.26776 12.7843 9.26775H17.0284C17.4595 9.26813 17.8096 9.61782 17.8096 10.049V11.2384H18.9981C19.4292 11.2388 19.7792 11.5886 19.7794 12.0197V16.133C19.7794 16.3177 19.6291 16.4677 19.4444 16.4679C19.2595 16.4679 19.1095 16.3179 19.1095 16.133V12.0197C19.1092 11.9584 19.0594 11.9087 18.9981 11.9084H17.8096V17.1926L19.1192 18.5021V17.8019C19.1194 17.6174 19.2687 17.4674 19.4532 17.467C19.638 17.467 19.788 17.6172 19.7882 17.8019V19.8058H17.7862C17.6014 19.8057 17.4512 19.6557 17.4512 19.4709C17.4514 19.2862 17.6015 19.1361 17.7862 19.1359H18.4903L17.1798 17.8244H11.8995V19.0138C11.8997 19.0753 11.9494 19.1251 12.0108 19.1252H16.1192L16.1866 19.132C16.3391 19.1632 16.4541 19.2985 16.4542 19.4601C16.4541 19.6218 16.3391 19.757 16.1866 19.7883L16.1192 19.7951H12.0108C11.5795 19.795 11.2297 19.4451 11.2296 19.0138V17.8244H10.0411C9.60988 17.8243 9.26017 17.4743 9.25984 17.0431V12.7961C9.25984 12.6111 9.40988 12.4611 9.5948 12.4611C9.77961 12.4612 9.92976 12.6112 9.92976 12.7961V17.0431C9.9301 17.1044 9.97973 17.1544 10.0411 17.1545H11.2296V11.8791L9.92293 10.5715V11.2658C9.92279 11.4506 9.7728 11.6008 9.58797 11.6008C9.40318 11.6007 9.25314 11.4506 9.25301 11.2658V9.26189H11.255L11.3233 9.26872ZM11.8995 17.1545H17.1397V11.9084H11.8995V17.1545Z" fill="#5C5CE8"/>
<path d="M13.7628 11.4474L11.5824 13.6297" stroke="#5C5CE8" stroke-width="0.312506"/>
<path d="M15.6015 11.5329L11.5614 15.5768" stroke="#5C5CE8" stroke-width="0.312506"/>
<path d="M17.3757 11.6828L11.5396 17.5241" stroke="#5C5CE8" stroke-width="0.312506"/>
<path d="M17.3757 13.6085L13.4637 17.5241" stroke="#5C5CE8" stroke-width="0.312506"/>
<path d="M17.3329 15.5769L15.3875 17.524" stroke="#5C5CE8" stroke-width="0.312506"/>
<path d="M33.5619 23.2823V19.1044H35.7347L36.4402 21.8985C37.1456 22.2648 37.7378 22.3497 38.6678 22.3497C41.2066 22.3497 42.08 20.9376 42.08 19.1592C42.08 17.126 40.9237 16.3917 38.7226 15.6308C35.0558 14.3602 33.6733 12.8066 33.6733 9.56122C33.6733 5.97612 36.0706 4.22604 39.7374 4.22604C41.5142 4.22604 43.2062 4.59233 44.419 5.24176V9.36303H42.248L41.5708 6.79365C41.0068 6.51229 40.358 6.39904 39.6243 6.39904C37.6494 6.39904 36.6912 7.35813 36.6912 9.05336C36.6912 10.9167 37.5381 11.5378 39.9637 12.3854C43.2928 13.5144 45.3225 14.8982 45.3225 18.7947C45.3225 21.8719 43.5457 24.498 38.8623 24.498C36.5498 24.498 34.7164 24.0467 33.5601 23.284L33.5619 23.2823Z" fill="#4E525F"/>
<path d="M54.1515 22.4348V24.1282H47.5234V22.4348L49.2436 22.2083V12.1855L47.5234 11.8193V9.84267H52.4596V22.2083L54.1515 22.4348ZM48.6796 5.74971C48.6796 4.62074 49.5548 3.7165 50.6828 3.7165C51.8107 3.7165 52.6859 4.59242 52.6859 5.74971C52.6859 6.90699 51.8107 7.7546 50.6545 7.7546C49.4982 7.7546 48.6796 6.85037 48.6796 5.74971Z" fill="#4E525F"/>
<path d="M55.9003 26.2459C55.9003 24.6922 56.8868 23.8464 58.1279 23.2819C57.1697 22.9156 56.6322 22.0397 56.6322 20.9674C56.6322 19.5553 57.3942 18.5962 58.2676 17.8901C57.1962 17.2124 56.4625 15.8852 56.4625 14.1634C56.4625 11.1428 58.4939 9.47769 61.8495 9.47769C62.753 9.47769 63.6263 9.61926 64.2752 9.84399H68.506V11.7073L66.4463 11.9887C66.9254 12.5532 67.2365 13.4574 67.2365 14.2749C67.2365 17.2389 65.4314 18.7926 61.8212 18.7926C61.1158 18.7926 60.3538 18.6793 59.8464 18.5378C59.3673 19.0173 59.1976 19.5252 59.1976 20.0348C59.1976 20.5444 59.507 20.9107 60.2407 20.9107H63.3152C66.2765 20.9107 68.2514 22.1246 68.2514 25.1453C68.2514 28.1659 66.1351 29.9726 61.876 29.9726C57.617 29.9726 55.8967 28.4472 55.8967 26.2459H55.9003ZM59.5671 23.7332C59.0879 24.1844 58.7485 24.9471 58.7485 25.823C58.7485 27.0369 59.5105 27.9694 61.8796 27.9694C64.4467 27.9694 65.3484 27.0104 65.3484 25.5983C65.3484 24.1862 64.6146 23.7349 63.0641 23.7349H59.5671V23.7332ZM64.109 14.1351C64.109 12.2435 63.5167 11.4242 61.8531 11.4242C60.3025 11.4242 59.6254 12.3001 59.6254 14.2183C59.6254 16.025 60.3308 16.9009 61.8531 16.9009C63.4884 16.9009 64.109 15.9684 64.109 14.1334V14.1351Z" fill="#4E525F"/>
<path d="M79.5664 14.1923C79.5664 12.667 79.1439 12.1025 78.0159 12.1025C77.0577 12.1025 75.8996 12.6386 75.0828 13.2881V22.2101L76.7465 22.4366V24.1301H70.1467V22.4366L71.8669 22.2101V12.1874L70.1467 11.8211V9.84453H74.5471L74.9131 11.5097C76.2108 10.2675 77.6499 9.47646 79.3702 9.47646C81.4865 9.47646 82.7559 10.6621 82.7559 13.1465V22.2083L84.4761 22.4348V24.1283H79.5682V14.1905L79.5664 14.1923Z" fill="#4E525F"/>
<path d="M94.9767 4.59225C99.1226 4.59225 101.097 6.65378 101.097 10.4654C101.097 14.277 99.3489 16.5632 94.9484 16.5632H92.3247V22.0966L94.9484 22.378V24.128H86.9377V22.4063L88.8843 22.0966V6.76703L86.9377 6.40073V4.59402H94.9767V4.59225ZM94.6956 14.4734C96.6987 14.4734 97.6004 13.3444 97.6004 10.6052C97.6004 7.86591 96.7535 6.70863 94.5824 6.70863H92.3265V14.4734H94.6956Z" fill="#4E525F"/>
<path d="M109.7 22.4348V24.1282H103.072V22.4348L104.792 22.2083V12.1855L103.072 11.8193V9.84267H108.008V22.2083L109.7 22.4348ZM104.229 5.74971C104.229 4.62074 105.104 3.7165 106.232 3.7165C107.36 3.7165 108.235 4.59242 108.235 5.74971C108.235 6.90699 107.36 7.7546 106.203 7.7546C105.047 7.7546 104.229 6.85037 104.229 5.74971Z" fill="#4E525F"/>
<path d="M113.311 5.80591L111.563 5.43961V3.57628H116.527V22.2096L118.276 22.4361V24.1296H111.563V22.4361L113.311 22.2096V5.80591Z" fill="#4E525F"/>
<path d="M120.194 16.9298C120.194 11.5663 122.591 9.47646 126.286 9.47646C129.981 9.47646 132.435 11.6229 132.435 16.9864C132.435 22.3499 130.038 24.4964 126.314 24.4964C122.591 24.4964 120.194 22.3216 120.194 16.9298ZM128.995 16.9581C128.995 12.9766 128.346 11.5097 126.286 11.5097C124.226 11.5097 123.634 12.9501 123.634 16.9581C123.634 20.9661 124.283 22.4915 126.314 22.4915C128.346 22.4915 128.995 20.9944 128.995 16.9581Z" fill="#4E525F"/>
<path d="M134.492 9.84371H136.071V6.25861L139.259 5.6375V9.84371H142.051V12.0185H139.259V20.714C139.259 21.7581 139.653 22.2394 140.5 22.2394C141.036 22.2394 141.6 22.0695 141.967 21.8731L142.475 23.793C141.798 24.1877 140.811 24.4991 139.4 24.4991C137.454 24.4991 136.071 23.5665 136.071 21.1387V12.0202H134.492V9.84548V9.84371Z" fill="#4E525F"/>
<path d="M144.72 7.56717V4.22941H143.451V3.64746H146.652V4.22941H145.374V7.56717H144.72ZM147.089 7.56717V3.64746H148.05L149.04 6.77842L149.996 3.64746H150.938V7.56717H150.342V4.2775L149.333 7.56717H148.742L147.69 4.22941V7.56717H147.089Z" fill="#4E525F"/>
</g>
<defs>
<clipPath id="clip0_22_3618">
<rect width="150.938" height="30" fill="white"/>
</clipPath>
</defs>
</svg>
