<svg width="35" height="35" viewBox="0 0 35 35" fill="none" xmlns="http://www.w3.org/2000/svg">
<path d="M27.7588 6.17517C30.1726 6.29755 32.0926 8.29347 32.0928 10.7377V24.2465L32.0859 24.4818C31.9673 26.8177 30.0947 28.6905 27.7588 28.809L27.5234 28.8148H9.49609L9.26172 28.809C6.9256 28.6907 5.05224 26.8178 4.93359 24.4818L4.92773 24.2465V10.7377C4.92791 8.29332 6.84768 6.29733 9.26172 6.17517L9.49609 6.16931H27.5234L27.7588 6.17517ZM6.34277 24.2465C6.34289 25.9878 7.7548 27.3996 9.49609 27.3998H27.5234C29.2649 27.3998 30.6766 25.9879 30.6768 24.2465V13.5443H6.34277V24.2465ZM21.3994 15.7152C22.5511 15.8322 23.45 16.8051 23.4502 17.9877V18.1869L23.4385 18.4203C23.3292 19.4952 22.4744 20.3501 21.3994 20.4594L21.166 20.4711H15.8564L15.623 20.4594C14.548 20.3502 13.6933 19.4953 13.584 18.4203L13.5723 18.1869V17.9877C13.5725 16.8051 14.4713 15.8322 15.623 15.7152L15.8564 15.7035H21.166L21.3994 15.7152ZM15.8564 17.1185C15.3768 17.1186 14.9876 17.508 14.9873 17.9877V18.1869C14.9875 18.6666 15.3767 19.055 15.8564 19.0551H21.166C21.6457 19.0549 22.0349 18.6665 22.0352 18.1869V17.9877C22.0349 17.5081 21.6457 17.1187 21.166 17.1185H15.8564ZM9.49609 7.58435C7.75483 7.58453 6.34295 8.99641 6.34277 10.7377V11.9047H30.6768V10.7377C30.6766 8.9963 29.2648 7.58435 27.5234 7.58435H9.49609Z" fill="#4E525F"/>
</svg>
