<svg width="36" height="36" viewBox="0 0 36 36" fill="none" xmlns="http://www.w3.org/2000/svg">
<path d="M18 6.49997C23.2558 6.49997 27.6428 10.1478 28.9219 15.083C32.6542 15.6925 35.5 18.8275 35.5 22.9687C35.5 27.3809 31.9933 31 27.625 31C27.0727 31 26.625 30.5522 26.625 30C26.625 29.4477 27.0727 29 27.625 29C30.8466 29 33.5 26.319 33.5 22.9687C33.5 19.619 31.0933 17.2077 28.0352 16.9912L27.2695 16.9375L27.124 16.1826C26.2748 11.7771 22.5008 8.49997 18 8.49997C14.426 8.49997 11.3061 10.5734 9.74707 13.6347L9.50195 14.1172L8.96387 14.1758C5.34628 14.5694 2.5 17.7141 2.5 21.5625C2.50004 25.5572 5.57065 28.7918 9.37891 28.9902L9.75 29L9.85254 29.0049C10.3567 29.0562 10.75 29.4823 10.75 30C10.75 30.5176 10.3566 30.9438 9.85254 30.9951L9.75 31L9.27246 30.9873C4.37155 30.7329 0.500038 26.586 0.5 21.5625C0.5 16.9066 3.81813 13.0063 8.21582 12.2627C10.1673 8.82737 13.8128 6.49997 18 6.49997ZM18.7148 13.9258L24.2148 19.5508L24.2832 19.6279C24.5985 20.0241 24.5689 20.603 24.1992 20.9648C23.8291 21.3267 23.2495 21.3429 22.8604 21.0185L22.7852 20.9492L19 17.0771V28.5L18.9951 28.6025C18.9438 29.1066 18.5177 29.5 18 29.5C17.4824 29.5 17.0562 29.1066 17.0049 28.6025L17 28.5V17.0771L13.2148 20.9492C12.8288 21.3439 12.1956 21.3506 11.8008 20.9648C11.406 20.5787 11.3991 19.9456 11.7852 19.5508L17.2852 13.9258L18 13.1943L18.7148 13.9258Z" fill="#4E525F"/>
</svg>
