<svg width="35" height="35" viewBox="0 0 35 35" fill="none" xmlns="http://www.w3.org/2000/svg">
<path d="M8.38501 4.33679C8.70754 4.40275 8.95044 4.68813 8.95044 5.03015C8.9503 5.37209 8.70751 5.65762 8.38501 5.72351L8.24243 5.73816H7.39478L10.9954 9.33777H25.0686V5.73816H11.4651C11.0742 5.73816 10.7571 5.421 10.7571 5.03015C10.7571 4.63933 11.0743 4.32214 11.4651 4.32214H25.0686C25.8501 4.32237 26.4836 4.95663 26.4836 5.73816V9.33777H30.0842C30.8658 9.33786 31.4993 9.97214 31.4993 10.7538V24.3641C31.4989 24.7545 31.1827 25.0709 30.7922 25.0712C30.4017 25.0711 30.0846 24.7546 30.0842 24.3641V10.7538H26.4836V24.8007L30.0842 28.4012V27.6034C30.0842 27.2128 30.4007 26.8957 30.7913 26.8954C31.1821 26.8954 31.4993 27.2125 31.4993 27.6034V30.869H28.2834C27.893 30.8688 27.5759 30.5524 27.5754 30.162C27.5754 29.7713 27.8928 29.4542 28.2834 29.454H29.135L25.4846 25.8026H11.4348V29.4032H25.0637L25.2063 29.4178C25.5287 29.4839 25.7717 29.7693 25.7717 30.1112C25.7714 30.4528 25.5285 30.7376 25.2063 30.8036L25.0637 30.8182H11.4348C10.7021 30.8182 10.0992 30.2613 10.0266 29.5477L10.0188 29.4032V25.8026H6.41919C5.63755 25.8026 5.00326 25.1692 5.00317 24.3876V10.7645C5.00334 10.3738 5.32044 10.0575 5.71118 10.0575C6.1018 10.0576 6.41902 10.3739 6.41919 10.7645V24.3876H10.0188V10.3622L6.44263 6.78601V7.58875C6.4423 7.97925 6.12517 8.29567 5.73462 8.29578C5.34397 8.29578 5.02694 7.97932 5.02661 7.58875V4.32214H8.24243L8.38501 4.33679ZM11.9338 24.3876H14.6956L25.0686 14.0145V11.2528L11.9338 24.3876ZM15.6965 24.3876H18.4583L25.0686 17.7772V15.0155L15.6965 24.3876ZM19.4583 24.3876H22.22L25.0686 21.5389V18.7772L19.4583 24.3876ZM23.2209 24.3876H25.0686V22.5399L23.2209 24.3876ZM11.4348 21.1249V23.8866L24.5676 10.7538H21.8059L11.4348 21.1249ZM11.4348 17.3622V20.1239L20.8049 10.7538H18.0432L11.4348 17.3622ZM11.4348 13.6005V16.3622L17.0432 10.7538H14.2815L11.4348 13.6005ZM11.4348 12.5995L13.2805 10.7538H11.4348V12.5995Z" fill="#2B92F0"/>
</svg>
