<svg width="35" height="35" viewBox="0 0 35 35" fill="none" xmlns="http://www.w3.org/2000/svg">
<path d="M27.4204 6.3905C29.8342 6.51288 31.7542 8.5088 31.7544 10.953V24.4618L31.7476 24.6971C31.6289 27.033 29.7563 28.9058 27.4204 29.0243L27.1851 29.0302H9.15771L8.92334 29.0243C6.58722 28.9061 4.71386 27.0331 4.59521 24.6971L4.58936 24.4618V10.953C4.58953 8.50865 6.5093 6.51266 8.92334 6.3905L9.15771 6.38464H27.1851L27.4204 6.3905ZM6.00439 24.4618C6.00452 26.2031 7.41642 27.6149 9.15771 27.6151H27.1851C28.9265 27.6151 30.3383 26.2032 30.3384 24.4618V13.7596H6.00439V24.4618ZM21.061 15.9305C22.2127 16.0476 23.1116 17.0205 23.1118 18.203V18.4022L23.1001 18.6356C22.9908 19.7105 22.136 20.5654 21.061 20.6747L20.8276 20.6864H15.5181L15.2847 20.6747C14.2096 20.5655 13.3549 19.7106 13.2456 18.6356L13.2339 18.4022V18.203C13.2341 17.0205 14.1329 16.0475 15.2847 15.9305L15.5181 15.9188H20.8276L21.061 15.9305ZM15.5181 17.3339C15.0384 17.334 14.6492 17.7234 14.6489 18.203V18.4022C14.6491 18.8819 15.0384 19.2703 15.5181 19.2704H20.8276C21.3073 19.2702 21.6966 18.8818 21.6968 18.4022V18.203C21.6965 17.7234 21.3072 17.334 20.8276 17.3339H15.5181ZM9.15771 7.79968C7.41645 7.79986 6.00457 9.21174 6.00439 10.953V12.12H30.3384V10.953C30.3382 9.21163 28.9265 7.79968 27.1851 7.79968H9.15771Z" fill="#FF9239"/>
</svg>
