<svg width="24" height="24" viewBox="0 0 24 24" fill="none" xmlns="http://www.w3.org/2000/svg">
<path fill-rule="evenodd" clip-rule="evenodd" d="M14.5115 8.00038C14.1231 7.35415 13.1864 7.35393 12.7976 7.99996L10.563 11.7134L9.78428 10.424C9.39495 9.77943 8.45983 9.78013 8.07152 10.4253L5.49165 14.7115C5.09049 15.378 5.57052 16.2272 6.34843 16.2272H8.00025V16.23L16.0003 16.23V16.2273H17.6889C18.4666 16.2273 18.9466 15.3786 18.546 14.7121L14.5115 8.00038ZM8.92829 10.941L9.97977 12.682L8.75639 14.7109L8.7504 14.721L8.44516 15.2272H6.34843L8.92829 10.941ZM13.6544 8.51557L17.6889 15.2273H9.61283L13.6544 8.51557Z" fill="white"/>
<path fill-rule="evenodd" clip-rule="evenodd" d="M3.4541 2.95459C2.62567 2.95459 1.9541 3.62616 1.9541 4.45459V18.8182C1.9541 19.6467 2.62568 20.3182 3.4541 20.3182H20.545C21.3734 20.3182 22.045 19.6467 22.045 18.8182V4.45459C22.045 3.62616 21.3734 2.95459 20.545 2.95459H3.4541ZM2.9541 4.45459C2.9541 4.17845 3.17796 3.95459 3.4541 3.95459H20.545C20.8212 3.95459 21.045 4.17845 21.045 4.45459V18.8182C21.045 19.0944 20.8212 19.3182 20.545 19.3182H3.4541C3.17796 19.3182 2.9541 19.0944 2.9541 18.8182V4.45459Z" fill="white"/>
</svg>
