<svg width="32" height="32" viewBox="0 0 32 32" fill="none" xmlns="http://www.w3.org/2000/svg">
<path d="M16 1.25C24.1422 1.25 30.75 7.85779 30.75 16C30.75 24.1422 24.1422 30.75 16 30.75C7.85779 30.75 1.25 24.1422 1.25 16C1.25 7.85779 7.85779 1.25 16 1.25Z" stroke="white" stroke-width="1.5"/>
<path d="M19.8481 7.7085C20.3089 7.7085 20.7443 7.87946 21.0825 8.18018C21.1177 8.20489 21.1516 8.23169 21.1821 8.26221L23.7466 10.8267L23.8696 10.9624C24.1404 11.2922 24.2915 11.7073 24.2915 12.1431V21.3569C24.2784 22.6442 23.2391 23.7085 21.9321 23.7085H10.6509C9.35079 23.7085 8.2915 22.6492 8.2915 21.3491V10.0679C8.29154 8.76781 9.35081 7.70853 10.6509 7.7085H19.8481ZM10.6509 9.20068C10.1749 9.20072 9.78372 9.59194 9.78369 10.0679V21.3491C9.78369 21.8251 10.1749 22.2163 10.6509 22.2163H21.9321C22.4013 22.2163 22.7943 21.8302 22.7993 21.3413V12.1431C22.7993 12.0681 22.7777 11.9975 22.7378 11.938L22.6919 11.8823L20.1675 9.35791L20.1089 9.30811C20.0397 9.23909 19.9482 9.20068 19.8481 9.20068H10.6509ZM16.2866 16.8188C17.5189 16.8188 18.5159 17.8151 18.5161 19.0474C18.5161 20.2798 17.519 21.2769 16.2866 21.2769C15.0544 21.2766 14.0581 20.2796 14.0581 19.0474C14.0583 17.8153 15.0546 16.8191 16.2866 16.8188ZM18.0308 10.7202C18.3186 10.7202 18.552 11.0004 18.5522 11.3462V12.812C18.5522 13.1581 18.3187 13.439 18.0308 13.439H11.8247C11.5367 13.439 11.3032 13.1581 11.3032 12.812V11.3462C11.3034 11.0004 11.5369 10.7202 11.8247 10.7202H18.0308Z" fill="white"/>
</svg>
