<svg width="35" height="35" viewBox="0 0 35 35" fill="none" xmlns="http://www.w3.org/2000/svg">
<path d="M17.4308 4.00005C17.4308 3.6092 17.1139 3.29236 16.7231 3.29236C16.3322 3.29236 16.0154 3.6092 16.0154 4.00005V16.0308C16.0154 17.9851 17.5996 19.5693 19.5538 19.5693H28.4607L24.0073 24.0227C23.7309 24.2991 23.7309 24.7472 24.0073 25.0235C24.2836 25.2999 24.7317 25.2999 25.0081 25.0235L31.1701 18.8616L25.0081 12.6996C24.7317 12.4233 24.2836 12.4233 24.0073 12.6996C23.7309 12.976 23.7309 13.4241 24.0073 13.7005L28.4607 18.1539H19.5538C18.3813 18.1539 17.4308 17.2034 17.4308 16.0308V4.00005Z" fill="white"/>
</svg>
