<svg width="21" height="30" viewBox="0 0 21 30" fill="none" xmlns="http://www.w3.org/2000/svg">
<path d="M10.6926 0.907715C5.21507 0.907715 0.784912 5.33787 0.784912 10.8154C0.784912 13.2782 1.4926 15.5853 2.7806 17.6659C4.12522 19.8456 5.89445 21.7139 7.25322 23.8936C7.91845 24.9551 8.39968 25.9459 8.90922 27.0923C9.27722 27.8708 9.57445 29.2154 10.6926 29.2154C11.8108 29.2154 12.108 27.8708 12.4618 27.0923C12.9855 25.9459 13.4526 24.9551 14.1178 23.8936C15.4766 21.728 17.2458 19.8597 18.5905 17.6659C19.8926 15.5853 20.6003 13.2782 20.6003 10.8154C20.6003 5.33787 16.1701 0.907715 10.6926 0.907715ZM10.6926 14.7077C8.73937 14.7077 7.15414 13.1225 7.15414 11.1693C7.15414 9.21602 8.73937 7.63079 10.6926 7.63079C12.6458 7.63079 14.2311 9.21602 14.2311 11.1693C14.2311 13.1225 12.6458 14.7077 10.6926 14.7077Z" fill="white"/>
</svg>
